<?xml version="1.0" encoding="utf-8"?>
<!-- Generator: Adobe Illustrator 16.0.3, SVG Export Plug-In . SVG Version: 6.00 Build 0)  -->
<!DOCTYPE svg PUBLIC "-//W3C//DTD SVG 1.1//EN" "http://www.w3.org/Graphics/SVG/1.1/DTD/svg11.dtd">
<svg version="1.1" id="Group_2" xmlns="http://www.w3.org/2000/svg" xmlns:xlink="http://www.w3.org/1999/xlink" x="0px" y="0px"
	 width="1366px" height="769px" viewBox="0 0 1366 769" enable-background="new 0 0 1366 769" xml:space="preserve">
<linearGradient id="Path_2_1_" gradientUnits="userSpaceOnUse" x1="755.1582" y1="0.1304" x2="753.2482" y2="1.4183" gradientTransform="matrix(729.132 0 0 769 -549103.25 -22)">
	<stop  offset="0" style="stop-color:#1F0D81"/>
	<stop  offset="0.498" style="stop-color:#1986AA"/>
	<stop  offset="0.647" style="stop-color:#1AA8C1"/>
	<stop  offset="0.863" style="stop-color:#1CA9C1"/>
	<stop  offset="1" style="stop-color:#1997C3"/>
</linearGradient>
<path id="Path_2" fill="url(#Path_2_1_)" d="M825.493,769H1366V0H787.67c-34.018,19.44-80.6,54.269-112.17,112.5
	c-46.16,85.132-57.327,214.893,2,262c67.775,53.815,176.03-41.145,240,6c71.738,52.87,78.814,222.855-4,323
	C887.855,734.511,856.568,755.2,825.493,769z"/>
<path id="Path_3" opacity="0.3" fill="#328785" enable-background="new    " d="M1230,181c15.286,107.84,67.584,118.235,80,206
	c17.149,121.223-59.333,264.966-124,264c-47.963-0.716-26.671-130.619-132-228c-77.4-71.562-197.516-104.326-228-70
	c-5.268,5.932-7.568,13.54-7.932,22.159c36.813-9.023,72.149-14.765,99.432,5.341c51.19,37.726,69.442,135.081,45.617,224.144
	c25.738,25.439,50.067,52.266,72.883,80.356c31.9,39.344,47.912,65.3,60.586,84H1366V0h-109.987
	C1222.947,44.995,1222.509,128.156,1230,181z"/>
<path id="Path_4" opacity="0.14" fill="#563ACC" enable-background="new    " d="M354.425,250.868
	c3.09-22-44.148-65.247-90.1-79.993c-13.042-4.185-88.4-28.369-114.082,36.36c-5.543,13.973-16.084,46.978-5.814,60.6
	c9.575,12.7,56.678,9.7,122.8-13.333C336.936,230.228,352.533,264.342,354.425,250.868z"/>
<linearGradient id="Path_5_1_" gradientUnits="userSpaceOnUse" x1="0" y1="703.3887" x2="568.7285" y2="703.3887">
	<stop  offset="0.3744" style="stop-color:#FDC100"/>
	<stop  offset="0.4116" style="stop-color:#FDBA00;stop-opacity:0.9404"/>
	<stop  offset="0.6757" style="stop-color:#FE8E00;stop-opacity:0.5183"/>
	<stop  offset="0.8806" style="stop-color:#FF7200;stop-opacity:0.1909"/>
	<stop  offset="1" style="stop-color:#FF6800;stop-opacity:0"/>
</linearGradient>
<path id="Path_5" fill="url(#Path_5_1_)" d="M302.5,640.5C188.141,626.27,61.9,670.114,0,718.08V769h568.729
	C482.868,728.31,422.313,655.409,302.5,640.5z"/>
<linearGradient id="Path_6_1_" gradientUnits="userSpaceOnUse" x1="0" y1="689.3887" x2="523.7285" y2="689.3887">
	<stop  offset="0.5862" style="stop-color:#FFFA2A"/>
	<stop  offset="0.5906" style="stop-color:#FFF829;stop-opacity:0.9893"/>
	<stop  offset="0.7326" style="stop-color:#FFBB18;stop-opacity:0.6462"/>
	<stop  offset="0.853" style="stop-color:#FF8E0B;stop-opacity:0.3552"/>
	<stop  offset="0.9459" style="stop-color:#FF7203;stop-opacity:0.1308"/>
	<stop  offset="1" style="stop-color:#FF6800;stop-opacity:0"/>
</linearGradient>
<path id="Path_6" opacity="0.19" fill="url(#Path_6_1_)" enable-background="new    " d="M0,675.837V755h523.729
	C437.869,714.31,377.313,641.409,257.5,626.5C166.35,615.158,67.651,640.71,0,675.837z"/>
<circle id="Ellipse_1" opacity="0.2" fill="#FFFFFF" enable-background="new    " cx="1107.5" cy="86.5" r="11.5"/>
<circle id="Ellipse_2" opacity="0.12" fill="#FFFFFF" enable-background="new    " cx="752" cy="365" r="3"/>
<circle id="Ellipse_3" opacity="0.2" fill="#FFFFFF" enable-background="new    " cx="1126" cy="412" r="8"/>
<circle id="Ellipse_4" opacity="0.13" fill="#FFFFFF" enable-background="new    " cx="782" cy="42" r="7"/>
<path id="Path_7" opacity="0.3" fill="#2092A5" enable-background="new    " d="M816,287c27.106-49.532,13.91-119.492-20-138
	c-25.707-14.031-48.9,9.377-72-6c-22.227-14.8-19.04-48.639-19.675-73.317C693.378,83.007,683.725,97.344,675.5,112.5
	c-18.479,34.08-31.341,75.311-36.327,115.529c9.498,9.173,17.234,20.009,22.827,31.971c20.979,43.72,3.722,69.376,23,84
	C712.767,365.064,786.612,340.7,816,287z"/>
</svg>
