<?xml version="1.0" encoding="utf-8"?>
<!-- Generator: Adobe Illustrator 16.0.3, SVG Export Plug-In . SVG Version: 6.00 Build 0)  -->
<!DOCTYPE svg PUBLIC "-//W3C//DTD SVG 1.1//EN" "http://www.w3.org/Graphics/SVG/1.1/DTD/svg11.dtd">
<svg version="1.1" id="Layer_1" xmlns="http://www.w3.org/2000/svg" xmlns:xlink="http://www.w3.org/1999/xlink" x="0px" y="0px"
	 width="440px" height="170px" viewBox="0 0 440 170" enable-background="new 0 0 440 170" xml:space="preserve">
<g>
	<path fill="#333333" d="M204.291,62.407v61.638h-8.739V78.326L186.86,93.07l-8.71-14.774v45.75h-8.736V62.407l7.506-0.005
		l9.94,16.872l9.948-16.872L204.291,62.407z"/>
	<path fill="#333333" d="M210.314,124.047V82.856h8.734v41.191H210.314z"/>
	<path fill="#333333" d="M248.766,82.856v41.191h-8.732v-20.262l-6.533-7.719v27.979h-8.732v-41.19h6.691l8.574,10.133V82.856
		H248.766z"/>
	<path fill="#333333" d="M283.164,103.453c0,17.459-10.762,20.594-19.945,20.594h-8.734V82.856h8.734
		C272.402,82.856,283.164,85.991,283.164,103.453z M274.4,103.453c0-13.309-7.84-13.813-11.183-13.813v27.62
		C266.561,117.262,274.4,116.759,274.4,103.453z"/>
	<path fill="#FFB404" d="M326.379,125.111c0,0.41-0.152,0.764-0.456,1.057c-0.301,0.294-0.666,0.439-1.092,0.439h-5.359
		c-0.485,0-0.864-0.146-1.139-0.439c-0.271-0.293-0.468-0.646-0.587-1.057c-0.063-0.469-0.171-0.896-0.319-1.276
		c-0.153-0.381-0.318-0.776-0.502-1.188c-0.181-0.354-0.438-0.528-0.771-0.528c-0.335,0-0.654,0.147-0.954,0.438
		c-1.455,1.528-3.197,2.717-5.229,3.565c-2.027,0.853-4.285,1.276-6.768,1.276c-2.426,0-4.637-0.41-6.635-1.231
		c-2.004-0.819-3.729-1.951-5.184-3.39c-1.453-1.438-2.576-3.17-3.361-5.195c-0.789-2.025-1.184-4.239-1.184-6.646
		c0-2.231,0.35-4.301,1.048-6.207c0.693-1.908,1.679-3.598,2.953-5.063c0.302-0.294,0.499-0.676,0.59-1.146
		c0.093-0.469,0.075-0.908-0.046-1.319c-0.484-1.527-0.729-3.052-0.729-4.577c0-1.879,0.365-3.612,1.094-5.197
		c0.725-1.583,1.71-2.963,2.953-4.137c1.24-1.174,2.712-2.099,4.408-2.773c1.695-0.674,3.513-1.013,5.453-1.013
		c2.118,0,4.104,0.411,5.952,1.231c1.848,0.823,3.438,2.056,4.771,3.699c1.394,1.704,2.362,3.713,2.908,6.032
		c0.547,2.318,0.605,4.799,0.184,7.439c-0.124,0.412-0.351,0.734-0.682,0.97c-0.333,0.233-0.714,0.294-1.139,0.175l-7.543-1.671
		c-0.426-0.117-0.761-0.34-1.001-0.661c-0.24-0.322-0.302-0.689-0.179-1.103c0.119-0.819,0.179-1.656,0.179-2.509
		c0-0.851-0.105-1.613-0.318-2.289c-0.21-0.674-0.575-1.233-1.09-1.674s-1.227-0.658-2.135-0.658c-1.031,0-1.789,0.322-2.271,0.968
		c-0.487,0.646-0.729,1.407-0.729,2.289c0,1.937,0.893,3.815,2.682,5.637c1.787,1.817,4.229,3.843,7.314,6.072
		c1.757,1.235,3.484,2.567,5.182,4.008c1.695,1.438,3.241,3.022,4.638,4.756c1.394,1.729,2.543,3.653,3.45,5.769
		C325.653,120.092,326.195,122.473,326.379,125.111z M297.656,111.198c0,1.819,0.455,3.479,1.361,4.976
		c0.912,1.498,2.306,2.246,4.186,2.246c0.604,0,1.328-0.222,2.181-0.659c0.848-0.44,1.574-1.19,2.182-2.247
		c0.242-0.353,0.287-0.75,0.135-1.188c-0.15-0.441-0.408-0.807-0.771-1.102c-0.544-0.469-1.183-0.908-1.907-1.319
		c-0.851-0.646-1.744-1.306-2.683-1.983c-0.938-0.675-1.834-1.363-2.683-2.066c-0.303-0.293-0.62-0.396-0.955-0.31
		c-0.333,0.087-0.563,0.338-0.682,0.748C297.779,108.997,297.656,109.967,297.656,111.198z"/>
	<path fill="#333333" d="M352.641,108.557c0,11.178-7.912,15.889-15.326,15.889c-3.546,0-6.265-0.721-8.573-2.155v-7.017
		c0.103-0.002,4.061,2.306,8.573,2.306c2.967,0,6.593-2.313,6.593-8.222c0-5.83-3.136-10.938-7.09-16.367
		c-5.439-7.504-7.663-11.974-7.663-17.962c0-8.066,5.355-13.016,13.516-13.016c3.128,0,5.932,1.035,6.838,1.596v6.44
		c0,0-3.497-1.331-6.923-1.331c-2.716,0-4.861,1.994-4.861,5.428c0,4.391,2.721,8.462,6.678,13.892
		C349.591,95.305,352.641,100.813,352.641,108.557z"/>
	<path fill="#333333" d="M390.367,103.449c0,19.709-13.226,21-17.683,21c-4.453,0-17.676-1.291-17.676-21
		c0-19.706,13.223-20.998,17.676-20.998C377.143,82.451,390.367,83.743,390.367,103.449z M381.621,103.453
		c0-12.266-6.034-14.214-8.937-14.214c-2.898,0-8.932,1.948-8.932,14.214c0,12.262,6.035,14.21,8.932,14.21
		C375.585,117.663,381.621,115.715,381.621,103.453z"/>
	<path fill="#333333" d="M418.454,82.856v30.019c0,9.62-7.729,11.576-11.999,11.576c-4.273,0-12.001-1.956-12.001-11.576V82.856
		h8.735v30.019c0,3.479,1.618,4.791,3.266,4.791c1.641,0,3.261-1.313,3.261-4.791V82.856H418.454z"/>
	<path fill="#333333" d="M439.164,117.262v6.785h-15.266V82.856h8.734v34.406H439.164z"/>
</g>
<g>
	<g>
		<ellipse fill="#FFFFFF" cx="82.814" cy="92.073" rx="82.814" ry="76"/>
		<path fill="#4A6ADD" d="M84.687,16.16v151.913c44.869-0.916,80.941-34.56,80.941-75.957
			C165.628,50.72,129.557,17.077,84.687,16.16z"/>
	</g>
	<g>
		<path fill="#FEFEFE" d="M86.024,142.593c0,0.245,0.003,0.488-0.001,0.734c-0.005,0.507-0.061,0.999-0.179,1.462
			c0.236-0.012,0.464-0.032,0.709-0.032c1.507,0,2.871,0.218,4.104,0.595c0.158-0.535,0.632-0.983,1.364-1.121
			c3.8-0.717,6.901-2.491,9.498-5.082c0.077-0.076,0.144-0.162,0.207-0.252c1.58-2.22,2.896-4.523,2.928-7.278
			c0.006-0.544-0.165-0.636-0.682-0.646c-0.872-0.021-1.745-0.098-2.615-0.174c-1.079-0.093-1.715-0.708-1.692-1.613
			c0.022-0.928,0.77-1.605,1.893-1.527c1.938,0.129,3.863,0.222,5.802-0.016c4.11-0.504,7.815-1.838,11.022-4.293
			c5.391-4.133,7.544-9.341,6.269-15.717c-0.243-1.222,0.27-1.879,1.561-2.102c1.152-0.202,2.049,0.381,2.303,1.488
			c0.333,1.463,0.42,2.947,0.468,4.451c1.44-0.197,2.479-1.021,3.482-1.746c1.256-0.904,2.346-2.002,3.19-3.328
			c1.744-2.732,2.131-5.576,1.276-8.604c-0.294-1.036-1.024-1.889-1.512-2.845c-0.487-0.951-0.356-1.736,0.423-2.239
			c0.775-0.499,1.835-0.361,2.582,0.318c0.395,0.361,0.771,0.729,0.999,1.216c8.548-6.619,8.435-18.875-2.373-25.5
			c0.012,1.265-0.524,2.306-0.986,3.373c-0.486,1.122-1.323,1.582-2.48,1.267c-1.009-0.275-1.41-1.145-1.021-2.293
			c0.75-2.211,1-4.448,0.276-6.692c-1.132-3.507-3.613-6.021-7.153-7.581c-3.579-1.58-7.344-1.835-11.197-0.863
			c-1.737,0.437-3.272,1.24-4.785,2.099c-0.542,0.308-0.437,0.619,0.058,0.813c1.192,0.469,1.844,1.505,2.825,2.201
			c0.771,0.546,0.705,1.68,0.043,2.238c-0.795,0.668-2.289,0.598-3.093-0.188c-3.7-3.61-8.297-4.832-13.526-4.176
			c-3.727,0.469-6.872,2.021-9.251,4.76c-0.515,0.594-0.753,1.25-0.729,2.03c0.045,1.465,0.031,2.933-0.01,4.399
			c-0.035,1.289-0.48,1.774-1.762,2.072c-0.024,1.183-0.048,2.368-0.071,3.55c1.411,0.26,1.829,0.756,1.832,2.28
			c0.011,3.875,0.005,7.748,0.005,11.625c0,4.467,0.012,8.935-0.01,13.404c-0.005,1.02,0.206,2.006,0.4,2.993
			c0.686,3.48,4.59,6.062,8.219,6.498c0.718,0.087,1.438,0.138,2.155,0.204c0.959,0.092,1.439,0.662,1.469,1.465
			c0.03,0.801-0.389,1.397-1.35,1.551c-1.817,0.282-3.557-0.109-5.259-0.593c-1.854-0.521-3.582-1.304-5.009-2.553
			c-0.131-0.114-0.244-0.285-0.471-0.215c-0.259,0.085-0.135,0.292-0.139,0.442c-0.015,0.522-0.005,1.047-0.005,1.571
			L86.024,142.593L86.024,142.593z M105.059,76.699c1.276-0.071,1.96,0.518,2.023,1.847c0.206,4.429,4.655,7.919,9.625,8.19
			c0.266,0.017,0.534,0.008,0.797,0.029c1.235,0.107,1.957,0.743,1.907,1.67c-0.042,0.787-0.909,1.463-1.985,1.489
			c-2.037,0.048-3.99-0.36-5.869-1.047c-1.173-0.429-1.447-0.36-1.887,0.771c-0.604,1.551-0.664,3.131-0.272,4.736
			c0.281,1.143-0.127,1.932-1.092,2.199c-1.111,0.313-1.851-0.156-2.458-1.281c-0.508-0.935-0.573-1.896-0.626-2.889
			c-0.087-1.939,0.809-3.629,1.677-5.307c0.271-0.527,0.289-0.83-0.162-1.246c-2.115-1.95-3.221-4.35-3.541-7.053
			C103.051,77.597,103.853,76.766,105.059,76.699z"/>
		<path fill="#070707" d="M18.901,78.396c0.18-0.033,0.223-0.155,0.234-0.301c0.22-2.732,1.223-5.295,2.403-7.742
			c1.778-3.689,4.243-6.981,7.471-9.804c2.255-1.974,4.664-3.713,7.342-5.145c5.021-2.686,10.449-4.2,16.228-4.689
			c7.099-0.599,13.922,0.44,20.447,3.025c2.737,1.084,5.278,2.514,7.677,4.165c1.206,0.833,2.238,1.836,3.421,2.684
			c0.31,0.222,0.441,0.232,0.732-0.018c5.394-4.66,11.777-5.95,18.819-4.295c1.664,0.393,2.543,0.045,3.846-0.776
			c5.191-3.265,10.912-4.119,17.002-2.493c3.802,1.016,6.931,2.917,9.395,5.813c1,1.177,1.669,2.438,2.186,3.806
			c0.552,1.463,1.273,2.628,2.961,3.431c2.224,1.06,4.037,2.719,5.641,4.559c4.964,5.695,5.78,12,3.163,18.692
			c-1.2,3.07-3.468,5.6-6.223,7.694c-0.563,0.429-0.741,0.854-0.596,1.519c0.312,1.446,0.396,2.931,0.024,4.371
			c-0.807,3.116-2.184,5.924-4.835,8.178c-2.103,1.791-4.456,3.063-7.149,3.879c-0.355,0.111-0.732,0.197-0.796,0.64
			c-0.197,1.362-1.002,2.517-1.645,3.701c-1.796,3.308-4.509,5.864-7.9,7.874c-2.947,1.747-6.123,2.87-9.558,3.404
			c-0.577,0.092-0.633,0.386-0.631,0.802c0.019,2.641-0.94,5.071-2.291,7.303c-1.717,2.839-4.258,5.019-7.41,6.585
			c-1.779,0.883-3.637,1.528-5.586,1.987c-0.95,0.223-1.833,0.194-2.413-0.67c-0.631-0.94-0.104-2.107,1.164-2.345
			c3.8-0.717,6.901-2.492,9.498-5.082c0.077-0.078,0.144-0.162,0.207-0.252c1.58-2.221,2.896-4.524,2.928-7.279
			c0.006-0.544-0.165-0.635-0.682-0.646c-0.872-0.021-1.745-0.097-2.615-0.173c-1.079-0.093-1.715-0.708-1.692-1.614
			c0.022-0.927,0.77-1.604,1.893-1.526c1.938,0.129,3.863,0.222,5.802-0.015c4.11-0.504,7.815-1.838,11.022-4.293
			c5.391-4.134,7.544-9.342,6.269-15.718c-0.243-1.222,0.27-1.879,1.561-2.103c1.152-0.201,2.049,0.382,2.303,1.49
			c0.333,1.461,0.42,2.946,0.468,4.45c1.44-0.196,2.479-1.021,3.482-1.747c1.256-0.904,2.346-2.002,3.19-3.326
			c1.744-2.733,2.131-5.576,1.276-8.604c-0.294-1.036-1.024-1.888-1.512-2.845c-0.487-0.951-0.356-1.736,0.423-2.239
			c0.775-0.499,1.835-0.362,2.582,0.319c0.395,0.361,0.771,0.729,0.999,1.215c8.548-6.619,8.435-18.875-2.373-25.5
			c0.012,1.265-0.524,2.306-0.986,3.373c-0.486,1.122-1.323,1.582-2.48,1.267c-1.009-0.275-1.41-1.145-1.021-2.293
			c0.75-2.211,1-4.448,0.276-6.692c-1.132-3.507-3.613-6.021-7.153-7.581c-3.579-1.58-7.344-1.835-11.197-0.863
			c-1.737,0.437-3.272,1.24-4.785,2.099c-0.542,0.308-0.437,0.619,0.058,0.812c1.192,0.469,1.844,1.505,2.825,2.201
			c0.771,0.546,0.705,1.68,0.043,2.238c-0.795,0.668-2.289,0.598-3.093-0.188c-3.7-3.61-8.297-4.832-13.526-4.176
			c-3.727,0.469-6.872,2.021-9.251,4.76c-0.515,0.594-0.753,1.25-0.729,2.03c0.045,1.465,0.031,2.933-0.01,4.399
			c-0.035,1.289-0.48,1.774-1.762,2.072c-1.609-0.222-2.004-0.623-2.016-2.119c-0.014-1.466-0.076-2.936,0.021-4.397
			c0.09-1.392-0.202-2.452-1.482-3.43c-1.807-1.377-3.599-2.77-5.611-3.864c-4.385-2.387-9.138-3.853-14.209-4.423
			c-5.992-0.675-11.845-0.104-17.48,1.868c-4.605,1.611-8.647,4.027-12.135,7.291c-3.343,3.128-5.704,6.76-7.299,10.818
			c-0.877,2.234-1.194,4.615-1.229,6.998c-0.062,4.097,0.576,8.076,2.107,11.962c1.119,2.836,2.475,5.537,4.053,8.181
			c2.13,3.565,4.696,6.839,7.454,9.998c2.952,3.383,6.231,6.493,9.598,9.524c1.48,1.334,2.986,2.652,4.573,3.877
			c3.406,2.631,6.82,5.252,10.391,7.69c2.364,1.615,4.729,3.236,7.175,4.743c4.014,2.473,8.051,4.915,12.239,7.139
			c0.443,0.236,0.837,0.711,1.428,0.438c0.608-0.281,0.404-0.857,0.407-1.315c0.021-5.03,0.025-10.056,0.026-15.085
			c0.003-16.689,0.001-33.378,0.002-50.065c0-1.707,0.316-2.075,1.917-2.278c1.411,0.26,1.829,0.756,1.832,2.28
			c0.011,3.875,0.005,7.749,0.005,11.625c0,4.467,0.012,8.935-0.01,13.404c-0.005,1.02,0.206,2.006,0.4,2.993
			c0.686,3.48,4.59,6.062,8.219,6.498c0.718,0.087,1.438,0.138,2.155,0.204c0.959,0.092,1.439,0.662,1.469,1.465
			c0.03,0.801-0.389,1.397-1.35,1.551c-1.817,0.282-3.557-0.109-5.259-0.593c-1.854-0.521-3.582-1.304-5.009-2.553
			c-0.131-0.114-0.244-0.285-0.471-0.215c-0.259,0.085-0.135,0.292-0.139,0.442c-0.015,0.522-0.005,1.047-0.005,1.571
			c0,9.388,0,18.777,0,28.169c0,0.245,0.003,0.488-0.001,0.734c-0.018,1.578-0.449,3.021-2.063,3.824
			c-1.771,0.879-3.575,0.744-5.298-0.224c-4.882-2.745-9.745-5.517-14.419-8.562c-2.886-1.879-5.73-3.803-8.531-5.788
			c-3.842-2.724-7.527-5.61-11.071-8.658c-2.276-1.953-4.476-3.969-6.599-6.063c-2.379-2.347-4.667-4.75-6.74-7.336
			c-1.486-1.854-2.926-3.721-4.262-5.672c-1.84-2.69-3.355-5.5-4.717-8.414c-0.792-1.692-1.25-3.453-1.891-5.172
			c-0.702-1.878-1.081-3.794-1.323-5.751c-0.009-0.075-0.136-0.135-0.207-0.203C18.901,83.005,18.901,80.701,18.901,78.396z"/>
		<path fill="#FFAE09" stroke="#000000" stroke-width="0.4396" stroke-miterlimit="10" d="M84.188,75.749
			c-1.601,0.203-1.917,0.571-1.917,2.278c-0.001,16.687,0.001,33.375-0.002,50.065c0,5.029-0.005,10.055-0.026,15.085
			c-0.003,0.458,0.202,1.034-0.407,1.315c-0.59,0.273-0.985-0.2-1.428-0.438c-4.188-2.224-8.226-4.666-12.239-7.139
			c-2.445-1.507-4.811-3.128-7.175-4.743c-3.571-2.438-6.985-5.062-10.391-7.69c-1.587-1.225-3.093-2.543-4.573-3.877
			c-3.366-3.031-6.646-6.143-9.598-9.524c-2.758-3.159-5.324-6.433-7.454-9.998c-1.578-2.644-2.934-5.345-4.053-8.181
			c-1.532-3.887-2.169-7.865-2.107-11.962c0.036-2.383,0.352-4.764,1.229-6.998c1.595-4.058,3.956-7.69,7.299-10.818
			c3.488-3.264,7.53-5.679,12.135-7.291c5.635-1.972,11.488-2.542,17.48-1.868c5.071,0.57,9.824,2.036,14.209,4.423
			c2.012,1.095,3.804,2.487,5.611,3.864c1.281,0.978,1.572,2.038,1.482,3.43c-0.097,1.461-0.035,2.931-0.021,4.397
			c0.011,1.496,0.406,1.897,2.016,2.119C84.235,73.382,84.211,74.566,84.188,75.749z"/>
		<path fill="#070707" d="M105.22,92.414c-0.087-1.939,0.809-3.629,1.677-5.307c0.271-0.527,0.289-0.83-0.162-1.246
			c-2.115-1.95-3.221-4.349-3.541-7.053c-0.144-1.212,0.659-2.042,1.864-2.11c1.276-0.071,1.96,0.518,2.023,1.847
			c0.206,4.429,4.655,7.919,9.625,8.191c0.266,0.016,0.534,0.007,0.797,0.029c1.235,0.106,1.957,0.742,1.907,1.67
			c-0.042,0.787-0.909,1.463-1.985,1.488c-2.037,0.047-3.99-0.361-5.869-1.047c-1.173-0.429-1.447-0.359-1.887,0.77
			c-0.604,1.552-0.664,3.131-0.272,4.737c0.281,1.142-0.127,1.933-1.092,2.199c-1.111,0.313-1.851-0.156-2.458-1.281
			C105.339,94.368,105.274,93.405,105.22,92.414z"/>
	</g>
	<path fill="#F96611" d="M81.92,143.98l-0.079-5.236c0,0-62.701-34.669-58.042-64.105l-0.71,3.825c0,0-1.713,8.009,4.281,19.563
		c0,0,9.985,15.631,16.05,19.904c0,0,8.521,7.285,10.996,9.613c0,0,25.512,16.492,25.934,16.739
		c0.424,0.253,1.487,0.207,1.487,0.207L81.92,143.98z"/>
</g>
</svg>
