<?xml version="1.0" encoding="utf-8"?>
<!-- Generator: Adobe Illustrator 16.0.3, SVG Export Plug-In . SVG Version: 6.00 Build 0)  -->
<!DOCTYPE svg PUBLIC "-//W3C//DTD SVG 1.1//EN" "http://www.w3.org/Graphics/SVG/1.1/DTD/svg11.dtd">
<svg version="1.1" id="Layer_1" xmlns="http://www.w3.org/2000/svg" xmlns:xlink="http://www.w3.org/1999/xlink" x="0px" y="0px"
	 width="130px" height="120px" viewBox="0 0 130 120" enable-background="new 0 0 130 120" xml:space="preserve">
<g>
	<g>
		<ellipse fill="#333333" cx="66.706" cy="62.349" rx="61.787" ry="54.604"/>
		<path fill="#F79933" d="M68.104,7.808v109.145c33.477-0.658,60.389-24.829,60.389-54.572
			C128.493,32.638,101.581,8.466,68.104,7.808z"/>
	</g>
	<g>
		<path fill-rule="evenodd" clip-rule="evenodd" fill="#FEFEFE" d="M69.102,98.646c0,0.177,0.003,0.351-0.002,0.527
			c-0.003,0.364-0.046,0.718-0.133,1.05c0.175-0.007,0.347-0.023,0.53-0.023c1.122,0,2.14,0.157,3.062,0.428
			c0.117-0.386,0.472-0.708,1.017-0.806c2.835-0.514,5.149-1.791,7.087-3.651c0.058-0.055,0.107-0.116,0.154-0.181
			c1.178-1.594,2.161-3.25,2.185-5.229c0.004-0.392-0.122-0.456-0.509-0.466c-0.651-0.014-1.302-0.068-1.95-0.124
			c-0.806-0.066-1.28-0.508-1.264-1.158c0.018-0.666,0.574-1.154,1.413-1.098c1.445,0.093,2.882,0.16,4.327-0.01
			c3.068-0.363,5.832-1.322,8.225-3.087c4.022-2.967,5.629-6.71,4.678-11.29c-0.182-0.878,0.201-1.35,1.163-1.511
			c0.86-0.146,1.529,0.273,1.719,1.07c0.248,1.051,0.313,2.117,0.35,3.198c1.074-0.142,1.849-0.735,2.598-1.256
			c0.938-0.649,1.75-1.437,2.38-2.391c1.302-1.963,1.589-4.006,0.951-6.181c-0.219-0.745-0.764-1.356-1.126-2.042
			c-0.364-0.686-0.267-1.25,0.314-1.61c0.579-0.358,1.37-0.26,1.926,0.229c0.295,0.261,0.576,0.523,0.746,0.873
			c6.378-4.755,6.293-13.561-1.771-18.321c0.01,0.909-0.391,1.656-0.735,2.424c-0.363,0.805-0.987,1.135-1.851,0.909
			c-0.753-0.197-1.052-0.821-0.761-1.647c0.559-1.589,0.746-3.196,0.205-4.809c-0.845-2.52-2.695-4.326-5.337-5.447
			c-2.671-1.134-5.479-1.318-8.354-0.62c-1.295,0.315-2.441,0.891-3.569,1.508c-0.404,0.221-0.325,0.444,0.043,0.583
			c0.889,0.337,1.376,1.083,2.107,1.581c0.576,0.392,0.526,1.208,0.032,1.608c-0.593,0.48-1.707,0.429-2.307-0.136
			c-2.761-2.593-6.191-3.471-10.092-3c-2.78,0.337-5.128,1.452-6.902,3.421c-0.385,0.426-0.562,0.897-0.543,1.457
			c0.033,1.053,0.022,2.107-0.008,3.162c-0.025,0.925-0.359,1.273-1.313,1.488c-0.021,0.849-0.037,1.7-0.054,2.55
			c1.052,0.187,1.363,0.544,1.367,1.639c0.008,2.784,0.003,5.567,0.003,8.351c0,3.211,0.009,6.421-0.007,9.631
			c-0.004,0.733,0.151,1.443,0.298,2.151c0.512,2.501,3.424,4.354,6.132,4.67c0.535,0.062,1.073,0.097,1.607,0.146
			c0.717,0.065,1.074,0.476,1.096,1.052c0.022,0.575-0.29,1.004-1.007,1.115c-1.355,0.202-2.654-0.08-3.923-0.426
			c-1.384-0.374-2.673-0.938-3.737-1.835c-0.099-0.081-0.182-0.205-0.352-0.153c-0.193,0.06-0.101,0.21-0.104,0.317
			c-0.01,0.376-0.003,0.752-0.003,1.129V98.646z M83.302,51.302c0.953-0.05,1.463,0.373,1.509,1.327
			c0.155,3.183,3.474,5.691,7.183,5.886c0.198,0.01,0.398,0.004,0.595,0.021c0.921,0.076,1.46,0.533,1.423,1.199
			c-0.033,0.565-0.68,1.05-1.482,1.069c-1.519,0.035-2.977-0.258-4.378-0.751c-0.876-0.308-1.08-0.258-1.407,0.553
			c-0.451,1.115-0.495,2.25-0.203,3.402c0.208,0.821-0.096,1.389-0.815,1.582c-0.83,0.225-1.381-0.113-1.834-0.921
			c-0.38-0.672-0.427-1.364-0.468-2.075c-0.064-1.395,0.604-2.608,1.252-3.813c0.201-0.378,0.215-0.597-0.121-0.895
			c-1.578-1.4-2.402-3.124-2.643-5.066C81.804,51.948,82.403,51.352,83.302,51.302z"/>
		<path fill-rule="evenodd" clip-rule="evenodd" fill="#070707" d="M19.021,52.522c0.135-0.024,0.167-0.112,0.175-0.217
			c0.164-1.961,0.912-3.803,1.793-5.562c1.327-2.65,3.165-5.016,5.574-7.044c1.683-1.417,3.48-2.667,5.477-3.697
			c3.746-1.929,7.796-3.017,12.107-3.368c5.296-0.43,10.388,0.317,15.255,2.173c2.042,0.779,3.938,1.806,5.728,2.993
			c0.899,0.599,1.67,1.319,2.552,1.928c0.232,0.159,0.331,0.167,0.546-0.013c4.026-3.348,8.788-4.275,14.043-3.085
			c1.239,0.281,1.896,0.032,2.868-0.558c3.874-2.346,8.142-2.959,12.686-1.792c2.836,0.731,5.172,2.095,7.009,4.177
			c0.747,0.845,1.246,1.751,1.632,2.735c0.412,1.05,0.948,1.888,2.209,2.465c1.659,0.761,3.011,1.954,4.209,3.274
			c3.704,4.092,4.313,8.622,2.359,13.431c-0.896,2.206-2.589,4.023-4.644,5.529c-0.42,0.308-0.553,0.614-0.445,1.09
			c0.232,1.04,0.297,2.105,0.019,3.141c-0.603,2.239-1.629,4.256-3.606,5.876c-1.57,1.286-3.326,2.2-5.334,2.786
			c-0.267,0.079-0.548,0.143-0.595,0.46c-0.147,0.979-0.749,1.809-1.227,2.659c-1.341,2.374-3.364,4.212-5.896,5.656
			c-2.198,1.257-4.567,2.063-7.131,2.447c-0.431,0.064-0.474,0.276-0.472,0.575c0.016,1.896-0.701,3.645-1.71,5.247
			c-1.28,2.04-3.175,3.605-5.527,4.73c-1.327,0.635-2.714,1.099-4.169,1.429c-0.708,0.159-1.366,0.14-1.8-0.482
			c-0.47-0.675-0.078-1.514,0.868-1.685c2.835-0.514,5.149-1.791,7.087-3.651c0.058-0.055,0.107-0.116,0.154-0.181
			c1.178-1.594,2.161-3.25,2.185-5.229c0.004-0.392-0.122-0.456-0.509-0.466c-0.651-0.014-1.302-0.068-1.95-0.124
			c-0.806-0.066-1.28-0.508-1.264-1.158c0.018-0.666,0.574-1.154,1.413-1.098c1.445,0.093,2.882,0.16,4.327-0.01
			c3.068-0.363,5.832-1.322,8.225-3.087c4.022-2.967,5.629-6.71,4.678-11.29c-0.182-0.878,0.201-1.35,1.163-1.511
			c0.86-0.146,1.529,0.273,1.719,1.07c0.248,1.051,0.313,2.117,0.35,3.198c1.074-0.142,1.849-0.735,2.598-1.256
			c0.938-0.649,1.75-1.437,2.38-2.391c1.302-1.963,1.589-4.006,0.951-6.181c-0.219-0.745-0.764-1.356-1.126-2.042
			c-0.364-0.686-0.267-1.25,0.314-1.61c0.579-0.358,1.37-0.26,1.926,0.229c0.295,0.261,0.576,0.523,0.746,0.873
			c6.378-4.755,6.293-13.561-1.771-18.321c0.01,0.909-0.391,1.656-0.735,2.424c-0.363,0.805-0.987,1.135-1.851,0.909
			c-0.753-0.197-1.052-0.821-0.761-1.647c0.559-1.589,0.746-3.196,0.205-4.809c-0.845-2.52-2.695-4.326-5.337-5.447
			c-2.671-1.134-5.479-1.318-8.354-0.62c-1.295,0.315-2.441,0.891-3.569,1.508c-0.404,0.221-0.325,0.444,0.043,0.583
			c0.889,0.337,1.376,1.083,2.107,1.581c0.576,0.392,0.526,1.208,0.032,1.608c-0.593,0.48-1.707,0.429-2.307-0.136
			c-2.761-2.593-6.191-3.471-10.092-3c-2.78,0.337-5.128,1.452-6.902,3.421c-0.385,0.426-0.562,0.897-0.543,1.457
			c0.033,1.053,0.022,2.107-0.008,3.162c-0.025,0.925-0.359,1.273-1.313,1.488c-1.201-0.16-1.495-0.448-1.506-1.523
			c-0.01-1.053-0.056-2.109,0.017-3.159c0.066-1-0.15-1.761-1.106-2.463c-1.348-0.99-2.685-1.991-4.187-2.777
			c-3.271-1.715-6.818-2.769-10.601-3.178c-4.471-0.485-8.837-0.075-13.042,1.341c-3.436,1.158-6.452,2.894-9.053,5.239
			c-2.495,2.248-4.256,4.856-5.446,7.772c-0.655,1.606-0.891,3.315-0.917,5.027c-0.047,2.943,0.429,5.803,1.572,8.595
			c0.835,2.037,1.846,3.978,3.023,5.877c1.589,2.563,3.504,4.914,5.562,7.184c2.203,2.431,4.649,4.664,7.161,6.844
			c1.104,0.957,2.228,1.906,3.413,2.786c2.54,1.89,5.087,3.772,7.752,5.525c1.764,1.161,3.528,2.323,5.354,3.407
			c2.993,1.775,6.006,3.53,9.131,5.128c0.331,0.17,0.624,0.512,1.064,0.315c0.455-0.202,0.301-0.617,0.303-0.946
			C66.296,95.45,66.3,91.84,66.3,88.227c0.002-11.989,0.002-23.981,0.002-35.971c0-1.225,0.234-1.49,1.43-1.636
			c1.052,0.187,1.363,0.544,1.367,1.639c0.008,2.784,0.003,5.567,0.003,8.351c0,3.211,0.009,6.421-0.007,9.631
			c-0.004,0.733,0.151,1.443,0.298,2.151c0.512,2.501,3.424,4.354,6.132,4.67c0.535,0.062,1.073,0.097,1.607,0.146
			c0.717,0.065,1.074,0.476,1.096,1.052c0.022,0.575-0.29,1.004-1.007,1.115c-1.355,0.202-2.654-0.08-3.923-0.426
			c-1.384-0.374-2.673-0.938-3.737-1.835c-0.099-0.081-0.182-0.205-0.352-0.153c-0.193,0.06-0.101,0.21-0.104,0.317
			c-0.01,0.376-0.003,0.752-0.003,1.129c0,6.744,0,13.492,0,20.239c0,0.177,0.003,0.351-0.002,0.527
			c-0.013,1.134-0.334,2.171-1.538,2.749c-1.321,0.631-2.667,0.535-3.953-0.161c-3.643-1.973-7.271-3.964-10.758-6.151
			c-2.153-1.349-4.274-2.732-6.365-4.158c-2.866-1.958-5.616-4.031-8.259-6.22c-1.699-1.404-3.34-2.854-4.924-4.357
			c-1.775-1.686-3.482-3.415-5.029-5.272c-1.108-1.332-2.183-2.672-3.18-4.074c-1.373-1.934-2.503-3.951-3.52-6.046
			c-0.591-1.215-0.932-2.479-1.411-3.715c-0.523-1.348-0.806-2.726-0.987-4.132c-0.007-0.054-0.102-0.097-0.155-0.145
			C19.021,55.833,19.021,54.178,19.021,52.522z"/>
		<path fill-rule="evenodd" clip-rule="evenodd" fill="#F79933" stroke="#000000" stroke-width="0.3219" stroke-miterlimit="10" d="
			M67.731,50.62c-1.195,0.146-1.43,0.412-1.43,1.636c0,11.989,0,23.981-0.002,35.971c0,3.613-0.004,7.224-0.021,10.838
			c-0.002,0.329,0.151,0.744-0.303,0.946c-0.44,0.196-0.733-0.146-1.064-0.315c-3.125-1.598-6.138-3.353-9.131-5.128
			c-1.825-1.084-3.59-2.246-5.354-3.407c-2.665-1.753-5.212-3.636-7.752-5.525c-1.185-0.88-2.309-1.829-3.413-2.786
			c-2.512-2.18-4.958-4.413-7.161-6.844c-2.058-2.27-3.972-4.621-5.562-7.184c-1.177-1.899-2.188-3.84-3.023-5.877
			c-1.143-2.792-1.619-5.651-1.572-8.595c0.026-1.712,0.263-3.421,0.917-5.027c1.189-2.916,2.951-5.525,5.446-7.772
			c2.602-2.345,5.618-4.081,9.053-5.239c4.205-1.417,8.571-1.826,13.042-1.341c3.783,0.409,7.329,1.462,10.601,3.178
			c1.502,0.786,2.839,1.787,4.187,2.777c0.956,0.702,1.172,1.464,1.106,2.463c-0.072,1.05-0.026,2.106-0.017,3.159
			c0.011,1.075,0.305,1.363,1.506,1.523C67.765,48.919,67.748,49.77,67.731,50.62z"/>
		<path fill-rule="evenodd" clip-rule="evenodd" fill="#070707" d="M83.423,62.594c-0.064-1.395,0.604-2.608,1.252-3.813
			c0.201-0.378,0.215-0.597-0.121-0.895c-1.578-1.4-2.402-3.124-2.643-5.066c-0.107-0.871,0.492-1.467,1.391-1.517
			c0.953-0.05,1.463,0.373,1.509,1.327c0.155,3.183,3.474,5.691,7.183,5.886c0.198,0.01,0.398,0.004,0.595,0.021
			c0.921,0.076,1.46,0.533,1.423,1.199c-0.033,0.565-0.68,1.05-1.482,1.069c-1.519,0.035-2.977-0.258-4.378-0.751
			c-0.876-0.308-1.08-0.258-1.407,0.553c-0.451,1.115-0.495,2.25-0.203,3.402c0.208,0.821-0.096,1.389-0.815,1.582
			c-0.83,0.225-1.381-0.113-1.834-0.921C83.511,63.997,83.464,63.305,83.423,62.594z"/>
	</g>
	<path fill="#F96611" d="M66.039,99.643L65.98,95.88c0,0-46.781-24.909-43.304-46.057l-0.53,2.749c0,0-1.279,5.753,3.193,14.057
		c0,0,7.45,11.229,11.975,14.301c0,0,6.357,5.233,8.204,6.906c0,0,19.035,11.849,19.35,12.026c0.316,0.182,1.108,0.149,1.108,0.149
		L66.039,99.643z"/>
</g>
</svg>
