<?xml version="1.0" encoding="utf-8"?>
<!-- Generator: Adobe Illustrator 16.0.3, SVG Export Plug-In . SVG Version: 6.00 Build 0)  -->
<!DOCTYPE svg PUBLIC "-//W3C//DTD SVG 1.1//EN" "http://www.w3.org/Graphics/SVG/1.1/DTD/svg11.dtd">
<svg version="1.1" id="Layer_1" xmlns="http://www.w3.org/2000/svg" xmlns:xlink="http://www.w3.org/1999/xlink" x="0px" y="0px"
	 width="130px" height="120px" viewBox="0 0 130 120" enable-background="new 0 0 130 120" xml:space="preserve">
<g>
	<g>
		<ellipse fill="#FFFFFF" cx="66.706" cy="62.349" rx="61.787" ry="54.604"/>
		<path fill="#4A6ADD" d="M68.104,7.808v109.145c33.478-0.658,60.39-24.829,60.39-54.572C128.493,32.638,101.581,8.466,68.104,7.808
			z"/>
	</g>
	<g>
		<path fill="#FEFEFE" d="M69.102,98.646c0,0.177,0.004,0.351-0.002,0.526c-0.002,0.364-0.045,0.718-0.133,1.05
			c0.176-0.007,0.348-0.022,0.53-0.022c1.122,0,2.14,0.157,3.062,0.428c0.117-0.386,0.473-0.708,1.018-0.806
			c2.835-0.514,5.148-1.791,7.087-3.651c0.058-0.055,0.106-0.116,0.153-0.181c1.179-1.594,2.162-3.25,2.186-5.229
			c0.004-0.392-0.122-0.456-0.509-0.466c-0.651-0.014-1.302-0.068-1.95-0.124c-0.807-0.065-1.279-0.508-1.264-1.157
			c0.018-0.666,0.574-1.154,1.412-1.099c1.445,0.093,2.883,0.16,4.328-0.01c3.067-0.363,5.832-1.322,8.225-3.087
			c4.021-2.967,5.629-6.711,4.678-11.291c-0.182-0.877,0.201-1.35,1.163-1.51c0.86-0.146,1.528,0.272,1.72,1.069
			c0.247,1.052,0.313,2.117,0.35,3.198c1.074-0.143,1.849-0.735,2.598-1.256c0.938-0.649,1.75-1.438,2.38-2.391
			c1.302-1.964,1.589-4.007,0.951-6.182c-0.22-0.745-0.765-1.355-1.126-2.042c-0.364-0.687-0.268-1.25,0.314-1.61
			c0.578-0.357,1.369-0.26,1.926,0.229c0.295,0.261,0.576,0.522,0.746,0.873c6.377-4.755,6.293-13.561-1.771-18.321
			c0.01,0.909-0.391,1.656-0.734,2.424c-0.363,0.805-0.987,1.135-1.852,0.909c-0.753-0.197-1.052-0.821-0.761-1.647
			c0.559-1.589,0.745-3.196,0.204-4.809c-0.844-2.52-2.694-4.326-5.336-5.447c-2.672-1.134-5.479-1.318-8.354-0.62
			c-1.295,0.315-2.44,0.891-3.569,1.508c-0.403,0.221-0.324,0.444,0.043,0.583c0.89,0.337,1.377,1.083,2.107,1.581
			c0.576,0.392,0.525,1.208,0.032,1.608c-0.593,0.48-1.707,0.429-2.308-0.136c-2.761-2.593-6.19-3.471-10.092-3
			c-2.779,0.337-5.128,1.452-6.902,3.421c-0.385,0.426-0.562,0.897-0.543,1.457c0.033,1.053,0.022,2.107-0.008,3.162
			c-0.024,0.925-0.358,1.273-1.313,1.488c-0.021,0.849-0.037,1.7-0.055,2.55c1.053,0.187,1.363,0.544,1.367,1.639
			c0.008,2.784,0.004,5.567,0.004,8.351c0,3.211,0.008,6.422-0.008,9.632c-0.004,0.733,0.151,1.442,0.299,2.151
			c0.512,2.5,3.424,4.354,6.131,4.67c0.535,0.062,1.074,0.097,1.607,0.146c0.717,0.065,1.074,0.476,1.096,1.052
			c0.022,0.575-0.289,1.004-1.006,1.115c-1.355,0.202-2.654-0.08-3.924-0.426c-1.384-0.374-2.673-0.938-3.736-1.836
			c-0.1-0.08-0.183-0.204-0.353-0.152c-0.192,0.061-0.101,0.21-0.104,0.316c-0.01,0.377-0.002,0.752-0.002,1.13v20.241H69.102z
			 M83.302,51.302c0.953-0.05,1.464,0.373,1.509,1.327c0.155,3.183,3.475,5.691,7.184,5.886c0.197,0.01,0.398,0.004,0.595,0.021
			c0.921,0.076,1.46,0.533,1.423,1.199c-0.033,0.565-0.68,1.05-1.482,1.07c-1.518,0.034-2.977-0.259-4.377-0.752
			c-0.877-0.308-1.08-0.258-1.407,0.553c-0.451,1.115-0.495,2.25-0.203,3.402c0.208,0.821-0.097,1.389-0.815,1.582
			c-0.83,0.225-1.381-0.113-1.834-0.921c-0.379-0.672-0.427-1.364-0.468-2.075c-0.063-1.395,0.604-2.608,1.252-3.813
			c0.201-0.378,0.216-0.597-0.12-0.896c-1.578-1.4-2.402-3.124-2.644-5.066C81.805,51.948,82.402,51.352,83.302,51.302z"/>
		<path fill="#070707" d="M19.021,52.522c0.135-0.024,0.167-0.112,0.175-0.217c0.164-1.961,0.912-3.803,1.793-5.562
			c1.327-2.65,3.165-5.016,5.574-7.044c1.683-1.417,3.48-2.667,5.477-3.697c3.746-1.929,7.796-3.017,12.107-3.368
			c5.296-0.43,10.388,0.317,15.255,2.173c2.042,0.779,3.938,1.806,5.728,2.993c0.899,0.599,1.67,1.319,2.552,1.928
			c0.232,0.159,0.332,0.167,0.547-0.013c4.025-3.348,8.787-4.275,14.043-3.085c1.238,0.281,1.896,0.032,2.867-0.558
			c3.875-2.346,8.143-2.959,12.687-1.792c2.836,0.73,5.172,2.095,7.009,4.177c0.747,0.845,1.246,1.751,1.632,2.735
			c0.412,1.05,0.948,1.888,2.209,2.465c1.659,0.761,3.011,1.954,4.209,3.274c3.704,4.092,4.313,8.622,2.359,13.431
			c-0.896,2.207-2.589,4.023-4.644,5.529c-0.42,0.309-0.554,0.614-0.445,1.09c0.232,1.041,0.297,2.105,0.019,3.142
			c-0.603,2.239-1.629,4.256-3.606,5.876c-1.569,1.286-3.325,2.2-5.334,2.786c-0.267,0.079-0.547,0.143-0.594,0.46
			c-0.147,0.979-0.75,1.809-1.228,2.658c-1.341,2.375-3.364,4.213-5.896,5.656c-2.199,1.258-4.568,2.063-7.132,2.447
			c-0.431,0.064-0.474,0.276-0.472,0.575c0.016,1.896-0.701,3.646-1.71,5.247c-1.28,2.04-3.175,3.605-5.527,4.73
			c-1.327,0.635-2.714,1.099-4.169,1.428c-0.708,0.16-1.365,0.141-1.8-0.481c-0.47-0.675-0.078-1.514,0.868-1.685
			c2.835-0.514,5.148-1.791,7.087-3.651c0.058-0.055,0.106-0.116,0.153-0.181c1.179-1.594,2.162-3.25,2.186-5.229
			c0.004-0.392-0.122-0.456-0.509-0.466c-0.651-0.014-1.302-0.068-1.95-0.124c-0.807-0.065-1.28-0.508-1.264-1.158
			c0.018-0.666,0.574-1.153,1.412-1.098c1.445,0.093,2.883,0.16,4.328-0.011c3.067-0.362,5.832-1.321,8.225-3.086
			c4.021-2.967,5.629-6.711,4.678-11.291c-0.182-0.877,0.201-1.35,1.163-1.51c0.86-0.146,1.528,0.272,1.719,1.069
			c0.248,1.051,0.313,2.117,0.351,3.198c1.074-0.143,1.849-0.735,2.598-1.256c0.938-0.649,1.75-1.438,2.38-2.392
			c1.302-1.963,1.589-4.006,0.951-6.181c-0.22-0.745-0.765-1.355-1.126-2.042c-0.364-0.687-0.268-1.25,0.314-1.61
			c0.578-0.357,1.369-0.26,1.926,0.229c0.295,0.261,0.576,0.522,0.746,0.873c6.377-4.755,6.293-13.562-1.771-18.321
			c0.01,0.909-0.391,1.656-0.734,2.424c-0.363,0.805-0.988,1.135-1.852,0.909c-0.753-0.197-1.052-0.821-0.762-1.647
			c0.56-1.589,0.746-3.196,0.205-4.809c-0.844-2.52-2.694-4.326-5.336-5.447c-2.672-1.134-5.479-1.318-8.354-0.62
			c-1.295,0.315-2.44,0.891-3.569,1.508c-0.404,0.221-0.324,0.444,0.043,0.583c0.89,0.337,1.377,1.083,2.107,1.581
			c0.576,0.392,0.525,1.208,0.032,1.608c-0.593,0.48-1.707,0.429-2.308-0.136c-2.761-2.593-6.19-3.471-10.092-3
			c-2.779,0.337-5.128,1.452-6.902,3.421c-0.385,0.426-0.562,0.897-0.543,1.457c0.033,1.053,0.022,2.107-0.008,3.162
			c-0.025,0.925-0.359,1.273-1.313,1.488c-1.201-0.16-1.495-0.448-1.506-1.523c-0.01-1.053-0.057-2.109,0.017-3.159
			c0.065-1-0.149-1.761-1.106-2.463c-1.348-0.99-2.685-1.991-4.187-2.777c-3.271-1.715-6.818-2.769-10.601-3.178
			c-4.471-0.485-8.837-0.075-13.042,1.341c-3.436,1.158-6.452,2.894-9.053,5.239c-2.495,2.248-4.256,4.856-5.446,7.772
			c-0.655,1.606-0.891,3.315-0.917,5.027c-0.047,2.943,0.429,5.803,1.572,8.594c0.835,2.037,1.846,3.979,3.023,5.877
			c1.589,2.563,3.504,4.914,5.562,7.185c2.203,2.431,4.649,4.664,7.161,6.845c1.104,0.956,2.228,1.905,3.413,2.785
			c2.54,1.891,5.087,3.771,7.752,5.525c1.764,1.16,3.528,2.322,5.354,3.406c2.993,1.775,6.006,3.53,9.131,5.129
			c0.331,0.17,0.624,0.512,1.064,0.314c0.455-0.201,0.301-0.617,0.303-0.945c0.017-3.61,0.021-7.221,0.021-10.834
			c0.002-11.988,0.002-23.98,0.002-35.971c0-1.225,0.234-1.49,1.431-1.636c1.052,0.187,1.363,0.544,1.367,1.639
			c0.008,2.784,0.002,5.567,0.002,8.351c0,3.211,0.01,6.422-0.006,9.632c-0.005,0.733,0.15,1.442,0.297,2.151
			c0.512,2.5,3.424,4.354,6.133,4.67c0.535,0.062,1.072,0.097,1.606,0.146c0.718,0.065,1.074,0.476,1.097,1.052
			c0.021,0.575-0.291,1.004-1.008,1.115c-1.354,0.202-2.654-0.08-3.923-0.426c-1.384-0.374-2.673-0.938-3.737-1.835
			c-0.099-0.081-0.182-0.205-0.352-0.153c-0.193,0.061-0.102,0.21-0.104,0.316c-0.01,0.377-0.004,0.752-0.004,1.13
			c0,6.743,0,13.491,0,20.239c0,0.177,0.004,0.351-0.002,0.526c-0.013,1.134-0.334,2.171-1.537,2.749
			c-1.321,0.631-2.667,0.535-3.954-0.161c-3.643-1.973-7.271-3.964-10.758-6.151c-2.153-1.349-4.274-2.731-6.365-4.157
			c-2.866-1.958-5.616-4.031-8.259-6.22c-1.699-1.404-3.34-2.854-4.924-4.357c-1.775-1.686-3.482-3.415-5.029-5.271
			c-1.108-1.332-2.183-2.672-3.18-4.074c-1.373-1.935-2.503-3.951-3.52-6.047c-0.591-1.215-0.932-2.479-1.411-3.715
			c-0.523-1.348-0.806-2.726-0.987-4.132c-0.007-0.054-0.102-0.097-0.155-0.145C19.021,55.833,19.021,54.178,19.021,52.522z"/>
		<path fill="#FFAE09" stroke="#000000" stroke-width="0.3219" stroke-miterlimit="10" d="M67.73,50.62
			c-1.194,0.146-1.43,0.412-1.43,1.636c0,11.989,0,23.98-0.002,35.971c0,3.613-0.004,7.225-0.021,10.838
			c-0.002,0.33,0.152,0.744-0.303,0.946c-0.439,0.196-0.732-0.146-1.063-0.315c-3.125-1.598-6.138-3.353-9.131-5.127
			c-1.825-1.084-3.59-2.246-5.354-3.407c-2.665-1.753-5.212-3.636-7.752-5.525c-1.185-0.88-2.309-1.829-3.413-2.786
			c-2.512-2.18-4.958-4.412-7.161-6.844c-2.058-2.27-3.972-4.621-5.562-7.184c-1.177-1.899-2.188-3.84-3.023-5.877
			c-1.143-2.792-1.619-5.651-1.572-8.595c0.026-1.712,0.263-3.421,0.917-5.027c1.189-2.916,2.951-5.525,5.446-7.772
			c2.602-2.345,5.618-4.081,9.053-5.239c4.205-1.417,8.571-1.826,13.042-1.341c3.783,0.409,7.329,1.462,10.601,3.178
			c1.502,0.786,2.839,1.787,4.187,2.777c0.956,0.702,1.172,1.464,1.106,2.463c-0.072,1.05-0.025,2.106-0.018,3.159
			c0.012,1.075,0.306,1.363,1.507,1.523C67.766,48.919,67.748,49.77,67.73,50.62z"/>
		<path fill="#070707" d="M83.423,62.594c-0.063-1.395,0.604-2.608,1.252-3.813c0.201-0.378,0.216-0.597-0.12-0.896
			c-1.578-1.4-2.402-3.124-2.644-5.066c-0.106-0.871,0.491-1.467,1.391-1.517c0.953-0.05,1.464,0.373,1.509,1.327
			c0.155,3.183,3.475,5.691,7.184,5.886c0.197,0.01,0.398,0.004,0.595,0.021c0.921,0.076,1.46,0.533,1.423,1.199
			c-0.033,0.565-0.68,1.05-1.482,1.069c-1.518,0.035-2.977-0.258-4.377-0.75c-0.877-0.308-1.08-0.258-1.407,0.553
			c-0.451,1.115-0.495,2.25-0.203,3.401c0.208,0.821-0.097,1.39-0.815,1.582c-0.83,0.226-1.381-0.112-1.834-0.921
			C83.512,63.997,83.464,63.305,83.423,62.594z"/>
	</g>
	<path fill="#F96611" d="M66.039,99.643L65.98,95.88c0,0-46.781-24.909-43.305-46.057l-0.53,2.749c0,0-1.279,5.753,3.193,14.057
		c0,0,7.45,11.229,11.975,14.301c0,0,6.357,5.233,8.204,6.906c0,0,19.035,11.85,19.35,12.025c0.316,0.183,1.108,0.149,1.108,0.149
		L66.039,99.643z"/>
</g>
</svg>
